<svg width="99" height="14" viewBox="0 0 99 14" fill="none" xmlns="http://www.w3.org/2000/svg">
<path d="M4.49746 10.195C3.8388 10.195 3.26246 10.0997 2.76846 9.909C2.2788 9.714 1.86713 9.46483 1.53346 9.1615C1.20413 8.85383 0.950631 8.531 0.772965 8.193L2.11196 7.283C2.21596 7.52133 2.36763 7.751 2.56696 7.972C2.7663 8.18867 3.02846 8.3685 3.35346 8.5115C3.67846 8.65017 4.08146 8.7195 4.56246 8.7195C5.02613 8.7195 5.4053 8.65017 5.69996 8.5115C5.99463 8.37283 6.2113 8.19083 6.34996 7.9655C6.48863 7.74017 6.55796 7.49533 6.55796 7.231C6.55796 6.90167 6.46696 6.64817 6.28496 6.4705C6.10296 6.2885 5.86463 6.16283 5.56996 6.0935C5.2753 6.01983 4.96113 5.97867 4.62746 5.97C4.32413 5.96133 4.1053 5.95483 3.97096 5.9505C3.83663 5.94617 3.7478 5.944 3.70446 5.944C3.66113 5.944 3.61996 5.944 3.58096 5.944V4.462C3.62863 4.462 3.7088 4.462 3.82146 4.462C3.93846 4.462 4.05763 4.462 4.17896 4.462C4.30463 4.45767 4.40646 4.45333 4.48446 4.449C4.97846 4.42733 5.38363 4.3125 5.69996 4.1045C6.02063 3.8965 6.18096 3.58883 6.18096 3.1815C6.18096 2.78717 6.03146 2.47733 5.73246 2.252C5.4378 2.02667 5.04563 1.914 4.55596 1.914C4.09663 1.914 3.69146 2.01583 3.34046 2.2195C2.9938 2.42317 2.73163 2.66367 2.55396 2.941L1.45546 1.823C1.7718 1.43733 2.2008 1.11233 2.74246 0.848C3.28846 0.579334 3.90813 0.445001 4.60146 0.445001C5.0088 0.445001 5.4053 0.499167 5.79096 0.6075C6.17663 0.7115 6.5233 0.871833 6.83096 1.0885C7.13863 1.30517 7.38346 1.5825 7.56546 1.9205C7.74746 2.2585 7.83846 2.6615 7.83846 3.1295C7.83846 3.5585 7.75613 3.955 7.59146 4.319C7.43113 4.67867 7.2058 4.97333 6.91546 5.203C7.32713 5.36767 7.64563 5.619 7.87096 5.957C8.10063 6.295 8.21546 6.72183 8.21546 7.2375C8.21546 7.84417 8.0508 8.3685 7.72146 8.8105C7.39213 9.2525 6.9458 9.59483 6.38246 9.8375C5.82346 10.0758 5.19513 10.195 4.49746 10.195ZM12.8163 10.195C12.1057 10.195 11.4817 10.0412 10.9443 9.7335C10.407 9.42583 9.98668 8.999 9.68335 8.453C9.38435 7.907 9.23485 7.27867 9.23485 6.568C9.23485 5.801 9.38218 5.13583 9.67685 4.5725C9.97151 4.00483 10.381 3.565 10.9053 3.253C11.4297 2.941 12.0363 2.785 12.7253 2.785C13.4533 2.785 14.0708 2.95617 14.5778 3.2985C15.0892 3.6365 15.4683 4.11533 15.7153 4.735C15.9623 5.35467 16.0555 6.08483 15.9948 6.9255H14.4413V6.3535C14.437 5.59083 14.3027 5.034 14.0383 4.683C13.774 4.332 13.358 4.1565 12.7903 4.1565C12.149 4.1565 11.6723 4.35583 11.3603 4.7545C11.0483 5.14883 10.8923 5.72733 10.8923 6.49C10.8923 7.20067 11.0483 7.751 11.3603 8.141C11.6723 8.531 12.1273 8.726 12.7253 8.726C13.111 8.726 13.4425 8.6415 13.7198 8.4725C14.0015 8.29917 14.2182 8.05 14.3698 7.725L15.9168 8.193C15.6482 8.82567 15.2322 9.3175 14.6688 9.6685C14.1098 10.0195 13.4923 10.195 12.8163 10.195ZM10.3983 6.9255V5.7425H15.2278V6.9255H10.3983ZM16.7952 10V8.687C17.0508 8.73467 17.248 8.73033 17.3867 8.674C17.5253 8.61333 17.6293 8.50067 17.6987 8.336C17.768 8.17133 17.8287 7.9525 17.8807 7.6795C17.95 7.29383 18.0107 6.84967 18.0627 6.347C18.119 5.84433 18.1667 5.307 18.2057 4.735C18.249 4.163 18.288 3.578 18.3227 2.98H23.4902V10H21.9302V4.449H19.7007C19.679 4.73067 19.653 5.047 19.6227 5.398C19.5923 5.74467 19.5598 6.09567 19.5252 6.451C19.4905 6.80633 19.4515 7.14433 19.4082 7.465C19.3692 7.78133 19.328 8.05217 19.2847 8.2775C19.185 8.7845 19.042 9.18533 18.8557 9.48C18.6737 9.77467 18.418 9.96317 18.0887 10.0455C17.7593 10.1322 17.3282 10.117 16.7952 10ZM28.5078 10.195C27.7971 10.195 27.1731 10.0412 26.6358 9.7335C26.0984 9.42583 25.6781 8.999 25.3748 8.453C25.0758 7.907 24.9263 7.27867 24.9263 6.568C24.9263 5.801 25.0736 5.13583 25.3683 4.5725C25.6629 4.00483 26.0724 3.565 26.5968 3.253C27.1211 2.941 27.7278 2.785 28.4168 2.785C29.1448 2.785 29.7623 2.95617 30.2693 3.2985C30.7806 3.6365 31.1598 4.11533 31.4068 4.735C31.6538 5.35467 31.7469 6.08483 31.6863 6.9255H30.1328V6.3535C30.1284 5.59083 29.9941 5.034 29.7298 4.683C29.4654 4.332 29.0494 4.1565 28.4818 4.1565C27.8404 4.1565 27.3638 4.35583 27.0518 4.7545C26.7398 5.14883 26.5838 5.72733 26.5838 6.49C26.5838 7.20067 26.7398 7.751 27.0518 8.141C27.3638 8.531 27.8188 8.726 28.4168 8.726C28.8024 8.726 29.1339 8.6415 29.4113 8.4725C29.6929 8.29917 29.9096 8.05 30.0613 7.725L31.6083 8.193C31.3396 8.82567 30.9236 9.3175 30.3603 9.6685C29.8013 10.0195 29.1838 10.195 28.5078 10.195ZM26.0898 6.9255V5.7425H30.9193V6.9255H26.0898ZM33.1236 10V2.98H34.6901V5.749H37.8426V2.98H39.4091V10H37.8426V7.218H34.6901V10H33.1236ZM43.1865 10.195C42.6795 10.195 42.2505 10.0997 41.8995 9.909C41.5485 9.714 41.282 9.45617 41.1 9.1355C40.9223 8.81483 40.8335 8.46167 40.8335 8.076C40.8335 7.738 40.8898 7.43467 41.0025 7.166C41.1151 6.893 41.2885 6.659 41.5225 6.464C41.7565 6.26467 42.0598 6.10217 42.4325 5.9765C42.7141 5.8855 43.0435 5.80317 43.4205 5.7295C43.8018 5.65583 44.2135 5.58867 44.6555 5.528C45.1018 5.463 45.5676 5.39367 46.053 5.32L45.494 5.6385C45.4983 5.15317 45.39 4.79567 45.169 4.566C44.948 4.33633 44.5753 4.2215 44.051 4.2215C43.7346 4.2215 43.4291 4.29517 43.1345 4.4425C42.8398 4.58983 42.634 4.84333 42.517 5.203L41.087 4.7545C41.2603 4.16083 41.5896 3.68417 42.075 3.3245C42.5646 2.96483 43.2233 2.785 44.051 2.785C44.675 2.785 45.2231 2.88683 45.6955 3.0905C46.1721 3.29417 46.5253 3.62783 46.755 4.0915C46.8806 4.3385 46.9565 4.592 46.9825 4.852C47.0085 5.10767 47.0215 5.38717 47.0215 5.6905V10H45.65V8.479L45.8775 8.726C45.5611 9.233 45.1906 9.60567 44.766 9.844C44.3456 10.078 43.8191 10.195 43.1865 10.195ZM43.4985 8.947C43.8538 8.947 44.1571 8.88417 44.4085 8.7585C44.6598 8.63283 44.8591 8.479 45.0065 8.297C45.1581 8.115 45.26 7.94383 45.312 7.7835C45.3943 7.58417 45.4398 7.35667 45.4485 7.101C45.4615 6.841 45.468 6.63083 45.468 6.4705L45.949 6.6135C45.4766 6.68717 45.0715 6.75217 44.7335 6.8085C44.3955 6.86483 44.1051 6.919 43.8625 6.971C43.6198 7.01867 43.4053 7.07283 43.219 7.1335C43.037 7.1985 42.8831 7.27433 42.7575 7.361C42.6318 7.44767 42.5343 7.54733 42.465 7.66C42.4 7.77267 42.3675 7.90483 42.3675 8.0565C42.3675 8.22983 42.4108 8.38367 42.4975 8.518C42.5841 8.648 42.7098 8.752 42.8745 8.83C43.0435 8.908 43.2515 8.947 43.4985 8.947ZM51.3033 10V2.98H57.4003V10H55.8337V4.449H52.8697V10H51.3033ZM61.1884 10.195C60.6814 10.195 60.2524 10.0997 59.9014 9.909C59.5504 9.714 59.2839 9.45617 59.1019 9.1355C58.9243 8.81483 58.8354 8.46167 58.8354 8.076C58.8354 7.738 58.8918 7.43467 59.0044 7.166C59.1171 6.893 59.2904 6.659 59.5244 6.464C59.7584 6.26467 60.0618 6.10217 60.4344 5.9765C60.7161 5.8855 61.0454 5.80317 61.4224 5.7295C61.8038 5.65583 62.2154 5.58867 62.6574 5.528C63.1038 5.463 63.5696 5.39367 64.0549 5.32L63.4959 5.6385C63.5003 5.15317 63.3919 4.79567 63.1709 4.566C62.9499 4.33633 62.5773 4.2215 62.0529 4.2215C61.7366 4.2215 61.4311 4.29517 61.1364 4.4425C60.8418 4.58983 60.6359 4.84333 60.5189 5.203L59.0889 4.7545C59.2623 4.16083 59.5916 3.68417 60.0769 3.3245C60.5666 2.96483 61.2253 2.785 62.0529 2.785C62.6769 2.785 63.2251 2.88683 63.6974 3.0905C64.1741 3.29417 64.5273 3.62783 64.7569 4.0915C64.8826 4.3385 64.9584 4.592 64.9844 4.852C65.0104 5.10767 65.0234 5.38717 65.0234 5.6905V10H63.6519V8.479L63.8794 8.726C63.5631 9.233 63.1926 9.60567 62.7679 9.844C62.3476 10.078 61.8211 10.195 61.1884 10.195ZM61.5004 8.947C61.8558 8.947 62.1591 8.88417 62.4104 8.7585C62.6618 8.63283 62.8611 8.479 63.0084 8.297C63.1601 8.115 63.2619 7.94383 63.3139 7.7835C63.3963 7.58417 63.4418 7.35667 63.4504 7.101C63.4634 6.841 63.4699 6.63083 63.4699 6.4705L63.9509 6.6135C63.4786 6.68717 63.0734 6.75217 62.7354 6.8085C62.3974 6.86483 62.1071 6.919 61.8644 6.971C61.6218 7.01867 61.4073 7.07283 61.2209 7.1335C61.0389 7.1985 60.8851 7.27433 60.7594 7.361C60.6338 7.44767 60.5363 7.54733 60.4669 7.66C60.4019 7.77267 60.3694 7.90483 60.3694 8.0565C60.3694 8.22983 60.4128 8.38367 60.4994 8.518C60.5861 8.648 60.7118 8.752 60.8764 8.83C61.0454 8.908 61.2534 8.947 61.5004 8.947ZM66.0657 10V8.687C66.3213 8.73467 66.5185 8.73033 66.6572 8.674C66.7958 8.61333 66.8998 8.50067 66.9692 8.336C67.0385 8.17133 67.0992 7.9525 67.1512 7.6795C67.2205 7.29383 67.2812 6.84967 67.3332 6.347C67.3895 5.84433 67.4372 5.307 67.4762 4.735C67.5195 4.163 67.5585 3.578 67.5932 2.98H72.7607V10H71.2007V4.449H68.9712C68.9495 4.73067 68.9235 5.047 68.8932 5.398C68.8628 5.74467 68.8303 6.09567 68.7957 6.451C68.761 6.80633 68.722 7.14433 68.6787 7.465C68.6397 7.78133 68.5985 8.05217 68.5552 8.2775C68.4555 8.7845 68.3125 9.18533 68.1262 9.48C67.9442 9.77467 67.6885 9.96317 67.3592 10.0455C67.0298 10.1322 66.5987 10.117 66.0657 10ZM74.7168 1.914V0.4775H76.2833V1.914H74.7168ZM74.7168 10V2.98H76.2833V10H74.7168ZM79.9918 10V4.371H77.6453V2.98H83.9048V4.371H81.5583V10H79.9918ZM88.5101 10.195C87.8254 10.195 87.2512 10.0325 86.7876 9.7075C86.3239 9.3825 85.9751 8.9405 85.7411 8.3815C85.5071 7.81817 85.3901 7.18767 85.3901 6.49C85.3901 5.78367 85.5071 5.151 85.7411 4.592C85.9751 4.033 86.3174 3.59317 86.7681 3.2725C87.2231 2.9475 87.7842 2.785 88.4516 2.785C89.1146 2.785 89.6887 2.9475 90.1741 3.2725C90.6637 3.59317 91.0429 4.033 91.3116 4.592C91.5802 5.14667 91.7146 5.77933 91.7146 6.49C91.7146 7.192 91.5824 7.8225 91.3181 8.3815C91.0537 8.9405 90.6811 9.3825 90.2001 9.7075C89.7191 10.0325 89.1557 10.195 88.5101 10.195ZM85.1236 13.12V2.98H86.5081V7.907H86.7031V13.12H85.1236ZM88.2696 8.791C88.6769 8.791 89.0127 8.68917 89.2771 8.4855C89.5414 8.28183 89.7364 8.00667 89.8621 7.66C89.9921 7.309 90.0571 6.919 90.0571 6.49C90.0571 6.06533 89.9921 5.67967 89.8621 5.333C89.7321 4.982 89.5306 4.70467 89.2576 4.501C88.9846 4.293 88.6379 4.189 88.2176 4.189C87.8189 4.189 87.4939 4.2865 87.2426 4.4815C86.9912 4.67217 86.8049 4.94083 86.6836 5.2875C86.5666 5.62983 86.5081 6.03067 86.5081 6.49C86.5081 6.945 86.5666 7.34583 86.6836 7.6925C86.8049 8.03917 86.9934 8.31 87.2491 8.505C87.5091 8.69567 87.8492 8.791 88.2696 8.791ZM95.1103 10.195C94.6033 10.195 94.1743 10.0997 93.8233 9.909C93.4723 9.714 93.2058 9.45617 93.0238 9.1355C92.8461 8.81483 92.7573 8.46167 92.7573 8.076C92.7573 7.738 92.8136 7.43467 92.9263 7.166C93.039 6.893 93.2123 6.659 93.4463 6.464C93.6803 6.26467 93.9836 6.10217 94.3563 5.9765C94.638 5.8855 94.9673 5.80317 95.3443 5.7295C95.7256 5.65583 96.1373 5.58867 96.5793 5.528C97.0256 5.463 97.4915 5.39367 97.9768 5.32L97.4178 5.6385C97.4221 5.15317 97.3138 4.79567 97.0928 4.566C96.8718 4.33633 96.4991 4.2215 95.9748 4.2215C95.6585 4.2215 95.353 4.29517 95.0583 4.4425C94.7636 4.58983 94.5578 4.84333 94.4408 5.203L93.0108 4.7545C93.1841 4.16083 93.5135 3.68417 93.9988 3.3245C94.4885 2.96483 95.1471 2.785 95.9748 2.785C96.5988 2.785 97.147 2.88683 97.6193 3.0905C98.096 3.29417 98.4491 3.62783 98.6788 4.0915C98.8045 4.3385 98.8803 4.592 98.9063 4.852C98.9323 5.10767 98.9453 5.38717 98.9453 5.6905V10H97.5738V8.479L97.8013 8.726C97.485 9.233 97.1145 9.60567 96.6898 9.844C96.2695 10.078 95.743 10.195 95.1103 10.195ZM95.4223 8.947C95.7776 8.947 96.081 8.88417 96.3323 8.7585C96.5836 8.63283 96.783 8.479 96.9303 8.297C97.082 8.115 97.1838 7.94383 97.2358 7.7835C97.3181 7.58417 97.3636 7.35667 97.3723 7.101C97.3853 6.841 97.3918 6.63083 97.3918 6.4705L97.8728 6.6135C97.4005 6.68717 96.9953 6.75217 96.6573 6.8085C96.3193 6.86483 96.029 6.919 95.7863 6.971C95.5436 7.01867 95.3291 7.07283 95.1428 7.1335C94.9608 7.1985 94.807 7.27433 94.6813 7.361C94.5556 7.44767 94.4581 7.54733 94.3888 7.66C94.3238 7.77267 94.2913 7.90483 94.2913 8.0565C94.2913 8.22983 94.3346 8.38367 94.4213 8.518C94.508 8.648 94.6336 8.752 94.7983 8.83C94.9673 8.908 95.1753 8.947 95.4223 8.947Z" fill="#0C3E2E"/>
</svg>
